<?xml version="1.0" encoding="UTF-8"?>
<svg version="1.1" xmlns="http://www.w3.org/2000/svg" width="16" height="16">
<path d="M0 0 C5.28 0 10.56 0 16 0 C16 5.28 16 10.56 16 16 C10.72 16 5.44 16 0 16 C0 10.72 0 5.44 0 0 Z " fill="#040404" transform="translate(0,0)"/>
<path d="M0 0 C1.32 0.33 2.64 0.66 4 1 C4 1.66 4 2.32 4 3 C4.66 3 5.32 3 6 3 C7.1875 5.75 7.1875 5.75 8 9 C7 11.375 7 11.375 5 13 C1.8125 13.25 1.8125 13.25 -1 13 C-2.75 10.4375 -2.75 10.4375 -4 7 C-3.03687239 4.27385915 -1.681191 2.40170142 0 0 Z " fill="#EF7CC3" transform="translate(6,1)"/>
<path d="M0 0 C3.3 0 6.6 0 10 0 C9.67 0.66 9.34 1.32 9 2 C8.01 2 7.02 2 6 2 C5.54625 3.134375 5.0925 4.26875 4.625 5.4375 C3 9 3 9 1 10 C-0.1577506 6.52674819 -0.06866652 3.63932552 0 0 Z " fill="#0C0C0C" transform="translate(0,0)"/>
<path d="M0 0 C1.98 0.495 1.98 0.495 4 1 C4 2.32 4 3.64 4 5 C2.35 5 0.7 5 -1 5 C-0.67 3.35 -0.34 1.7 0 0 Z " fill="#F1DC8F" transform="translate(6,1)"/>
</svg>
